<svg width="28" height="29" viewBox="0 0 28 29" fill="none" xmlns="http://www.w3.org/2000/svg">
<path d="M4.29907 8.87256H23.0009C23.4765 8.87251 23.9465 8.96011 24.3787 9.12935C24.8109 9.2986 25.195 9.54548 25.5047 9.85308C25.8144 10.1607 26.0424 10.5217 26.1731 10.9114C26.3037 11.3012 26.334 11.7104 26.2617 12.111L24.1918 23.569C24.0121 24.5648 23.4199 25.4728 22.5226 26.1287C21.6253 26.7846 20.482 27.1451 19.2998 27.1448H7.99854C6.81662 27.1447 5.67376 26.7841 4.77677 26.1283C3.87977 25.4724 3.2879 24.5646 3.10825 23.569L1.03833 12.111C0.966036 11.7104 0.996252 11.3012 1.12691 10.9114C1.25756 10.5217 1.48557 10.1607 1.79529 9.85308C2.10501 9.54548 2.48912 9.2986 2.92128 9.12935C3.35345 8.96011 3.82346 8.87251 4.29907 8.87256Z" stroke="black" stroke-width="1.98" stroke-linecap="round" stroke-linejoin="round"/>
<path d="M8.69922 13.0892V6.06139C8.69922 4.94306 9.22053 3.87054 10.1485 3.07976C11.0764 2.28898 12.3349 1.84473 13.6472 1.84473C14.9595 1.84473 16.2181 2.28898 17.146 3.07976C18.0739 3.87054 18.5953 4.94306 18.5953 6.06139V13.0892" stroke="black" stroke-width="1.98" stroke-linecap="round" stroke-linejoin="round"/>
</svg>
