<?xml version="1.0" encoding="UTF-8"?>
<svg xmlns="http://www.w3.org/2000/svg" xmlns:xlink="http://www.w3.org/1999/xlink" width="24px" height="24px" viewBox="0 0 24 24" version="1.1">
<g id="surface1">
<path style=" stroke:none;fill-rule:nonzero;fill:rgb(100%,100%,100%);fill-opacity:1;" d="M 11.988281 19.433594 C 8.070312 19.433594 4.144531 17.097656 0.3125 12.492188 C 0.0703125 12.199219 0.0703125 11.773438 0.3125 11.480469 C 4.144531 6.875 8.070312 4.542969 11.988281 4.542969 C 15.902344 4.542969 19.832031 6.875 23.660156 11.480469 C 23.902344 11.773438 23.902344 12.199219 23.660156 12.492188 C 19.832031 17.097656 15.902344 19.433594 11.988281 19.433594 Z M 1.957031 11.988281 C 5.328125 15.878906 8.699219 17.851562 11.988281 17.851562 C 15.273438 17.851562 18.644531 15.878906 22.015625 11.988281 C 18.644531 8.09375 15.273438 6.121094 11.988281 6.121094 C 8.699219 6.121094 5.328125 8.09375 1.957031 11.988281 Z M 1.957031 11.988281 "/>
<path style=" stroke:none;fill-rule:nonzero;fill:rgb(100%,100%,100%);fill-opacity:1;" d="M 11.988281 16.464844 C 9.515625 16.464844 7.507812 14.457031 7.507812 11.988281 C 7.507812 9.515625 9.515625 7.507812 11.988281 7.507812 C 14.457031 7.507812 16.464844 9.515625 16.464844 11.988281 C 16.464844 14.457031 14.457031 16.464844 11.988281 16.464844 Z M 11.988281 9.089844 C 10.390625 9.089844 9.089844 10.390625 9.089844 11.988281 C 9.089844 13.585938 10.390625 14.882812 11.988281 14.882812 C 13.585938 14.882812 14.882812 13.585938 14.882812 11.988281 C 14.882812 10.390625 13.585938 9.089844 11.988281 9.089844 Z M 11.988281 9.089844 "/>
</g>
</svg>
