<svg width="51" height="45" viewBox="0 0 51 45" fill="none" xmlns="http://www.w3.org/2000/svg">
<path d="M36.7947 19.6311C36.7947 18.8496 36.7947 18.4588 36.9121 18.1109C37.2532 17.099 38.1545 16.7082 39.058 16.2971C40.07 15.834 40.576 15.6036 41.0797 15.563C41.6489 15.5178 42.2204 15.6398 42.7083 15.9131C43.3543 16.2745 43.8061 16.9657 44.2669 17.5259C46.397 20.1145 47.4632 21.4088 47.8517 22.8342C48.1679 23.9862 48.1679 25.1924 47.8517 26.3422C47.2847 28.4248 45.4889 30.1686 44.1585 31.786C43.4786 32.6104 43.1375 33.0238 42.7083 33.2655C42.212 33.5407 41.6452 33.6626 41.0797 33.6156C40.576 33.575 40.07 33.3446 39.0558 32.8815C38.1522 32.4704 37.2532 32.0796 36.9121 31.0677C36.7947 30.7198 36.7947 30.329 36.7947 29.5474V19.6311ZM14.2062 19.6311C14.2062 18.6463 14.1791 17.7631 13.384 17.0719C13.0949 16.8211 12.7109 16.6472 11.9451 16.2971C10.9309 15.8363 10.4249 15.6036 9.92121 15.563C8.41457 15.441 7.60364 16.471 6.73625 17.5282C4.6039 20.1145 3.53773 21.4088 3.14695 22.8364C2.83253 23.9846 2.83253 25.1962 3.14695 26.3444C3.71618 28.4248 5.51421 30.1709 6.84241 31.786C7.68044 32.8024 8.48233 33.7308 9.92121 33.6156C10.4249 33.575 10.9309 33.3446 11.9451 32.8815C12.7131 32.5336 13.0949 32.3574 13.384 32.1067C14.1791 31.4155 14.2062 30.5323 14.2062 29.5497V19.6311Z" stroke="black" stroke-width="4" stroke-linecap="round" stroke-linejoin="round"/>
<path d="M9.6897 15.5531C9.6897 8.06725 16.7689 2 25.5016 2C34.2343 2 41.3135 8.06725 41.3135 15.5531M41.3135 33.6238V35.4309C41.3135 39.4222 37.2702 42.6592 32.2781 42.6592H27.7604" stroke="black" stroke-width="4" stroke-linecap="round" stroke-linejoin="round"/>
</svg>
