<svg width="53" height="41" viewBox="0 0 53 41" fill="none" xmlns="http://www.w3.org/2000/svg">
<path d="M52.4091 19.7483L46.8252 6.71926C46.6828 6.38283 46.4444 6.09578 46.1399 5.89388C45.8354 5.69198 45.4782 5.58417 45.1129 5.58387H39.529V1.86129C39.529 1.36765 39.3329 0.894219 38.9838 0.54516C38.6348 0.1961 38.1613 0 37.6677 0H2.30318C1.80954 0 1.33611 0.1961 0.987054 0.54516C0.637994 0.894219 0.441895 1.36765 0.441895 1.86129V33.5032C0.441895 33.9969 0.637994 34.4703 0.987054 34.8194C1.33611 35.1684 1.80954 35.3645 2.30318 35.3645H6.28635C6.71497 36.9417 7.65067 38.334 8.9491 39.3267C10.2475 40.3194 11.8365 40.8572 13.4709 40.8572C15.1053 40.8572 16.6943 40.3194 17.9928 39.3267C19.2912 38.334 20.2269 36.9417 20.6555 35.3645H32.3444C32.773 36.9417 33.7087 38.334 35.0072 39.3267C36.3056 40.3194 37.8946 40.8572 39.529 40.8572C41.1634 40.8572 42.7524 40.3194 44.0508 39.3267C45.3492 38.334 46.2849 36.9417 46.7136 35.3645H50.6967C51.1904 35.3645 51.6638 35.1684 52.0129 34.8194C52.3619 34.4703 52.558 33.9969 52.558 33.5032V20.4742C52.5575 20.2247 52.5069 19.9778 52.4091 19.7483ZM39.529 9.30645H43.8844L47.8676 18.6129H39.529V9.30645ZM13.4709 37.2258C12.7347 37.2258 12.0149 37.0075 11.4028 36.5984C10.7906 36.1894 10.3135 35.608 10.0317 34.9278C9.74996 34.2476 9.67624 33.4991 9.81987 32.777C9.96351 32.0549 10.3181 31.3916 10.8387 30.871C11.3593 30.3503 12.0226 29.9958 12.7447 29.8522C13.4668 29.7085 14.2153 29.7823 14.8955 30.064C15.5757 30.3458 16.1571 30.8229 16.5661 31.4351C16.9752 32.0472 17.1935 32.767 17.1935 33.5032C17.1935 34.4905 16.8013 35.4374 16.1032 36.1355C15.4051 36.8336 14.4582 37.2258 13.4709 37.2258ZM32.3444 31.6419H20.6555C20.2269 30.0647 19.2912 28.6724 17.9928 27.6797C16.6943 26.6871 15.1053 26.1493 13.4709 26.1493C11.8365 26.1493 10.2475 26.6871 8.9491 27.6797C7.65067 28.6724 6.71497 30.0647 6.28635 31.6419H4.16447V3.72258H35.8064V27.1004C34.9589 27.5923 34.2168 28.2467 33.6227 29.026C33.0286 29.8054 32.5942 30.6943 32.3444 31.6419ZM39.529 37.2258C38.7927 37.2258 38.073 37.0075 37.4608 36.5984C36.8487 36.1894 36.3715 35.608 36.0898 34.9278C35.808 34.2476 35.7343 33.4991 35.8779 32.777C36.0216 32.0549 36.3761 31.3916 36.8967 30.871C37.4173 30.3503 38.0806 29.9958 38.8027 29.8522C39.5249 29.7085 40.2733 29.7823 40.9536 30.064C41.6338 30.3458 42.2152 30.8229 42.6242 31.4351C43.0332 32.0472 43.2516 32.767 43.2516 33.5032C43.2516 34.4905 42.8594 35.4374 42.1612 36.1355C41.4631 36.8336 40.5163 37.2258 39.529 37.2258ZM48.8354 31.6419H46.7136C46.302 30.0478 45.3736 28.635 44.0736 27.6247C42.7736 26.6143 41.1754 26.0634 39.529 26.0581V22.3355H48.8354V31.6419Z" fill="black"/>
</svg>
