<svg width="46" height="41" viewBox="0 0 46 41" fill="none" xmlns="http://www.w3.org/2000/svg">
<path d="M45.2451 18.1139C45.2451 17.0463 44.819 16.0225 44.0605 15.2676C43.302 14.5127 42.2732 14.0886 41.2006 14.0886H28.4197L30.3611 4.89075C30.4016 4.68948 30.4218 4.46809 30.4218 4.2467C30.4218 3.42151 30.078 2.6567 29.532 2.11329L27.3884 0L14.0817 13.2433C13.3335 13.9879 12.8886 14.9943 12.8886 16.1012V36.2278C12.8886 37.2953 13.3147 38.3192 14.0732 39.0741C14.8317 39.829 15.8605 40.2531 16.9331 40.2531H35.1337C36.8122 40.2531 38.248 39.2467 38.8547 37.7976L44.962 23.6084C45.144 23.1455 45.2451 22.6625 45.2451 22.1392V18.1139ZM0.754883 40.2531H8.84402V16.1012H0.754883V40.2531Z" fill="black"/>
</svg>
