<svg width="55" height="35" viewBox="0 0 55 35" fill="none" xmlns="http://www.w3.org/2000/svg">
<rect x="0.570312" y="0.857178" width="53.9739" height="34.088" rx="2.57005" fill="white"/>
<rect x="0.978751" y="1.26562" width="53.157" height="33.2712" rx="2.16162" stroke="black" stroke-opacity="0.1" stroke-width="0.816878"/>
<path d="M32.0604 9.82123H23.0586V25.9765H32.0604V9.82123Z" fill="#FF5F00"/>
<path d="M23.6294 17.8988C23.6294 14.7591 25.0869 11.7621 27.5445 9.82115C23.0864 6.31037 16.628 7.08103 13.113 11.5623C9.59798 16.015 10.3696 22.4657 14.8562 25.9765C18.5998 28.9164 23.8295 28.9164 27.5731 25.9765C25.0869 24.0355 23.6294 21.0385 23.6294 17.8988Z" fill="#EB001B"/>
<path d="M44.2047 17.8988C44.2047 23.5789 39.6038 28.1743 33.9169 28.1743C31.6021 28.1743 29.3731 27.4036 27.5728 25.9765C32.0308 22.4657 32.8024 16.015 29.2874 11.5337C28.773 10.9058 28.2015 10.3064 27.5728 9.82115C32.0308 6.31037 38.5178 7.08103 42.0043 11.5623C43.4331 13.3605 44.2047 15.5868 44.2047 17.8988Z" fill="#F79E1B"/>
<path d="M43.2328 24.2637V23.9212H43.3756V23.8641H43.0327V23.9212H43.1756V24.2637H43.2328ZM43.89 24.2637V23.8641H43.7757L43.6614 24.1496L43.5471 23.8641H43.4328V24.2637H43.5185V23.9498L43.6328 24.2067H43.7186L43.8329 23.9498V24.2637H43.89Z" fill="#F79E1B"/>
</svg>
