<svg width="54" height="35" viewBox="0 0 54 35" fill="none" xmlns="http://www.w3.org/2000/svg">
<rect x="0.0263672" y="0.857178" width="53.9739" height="34.088" rx="2.57005" fill="white"/>
<rect x="0.434806" y="1.26562" width="53.157" height="33.2712" rx="2.16162" stroke="black" stroke-opacity="0.1" stroke-width="0.816878"/>
<path d="M32.8554 11.6688C30.1217 11.6688 27.6672 13.0913 27.6672 15.7015C27.6672 18.7077 32.0029 18.9131 32.0029 20.4088C32.0029 21.0394 31.2681 21.6113 30.0335 21.6113C28.2698 21.6113 26.9471 20.8194 26.9471 20.8194L26.3886 23.459C26.3886 23.459 27.9024 24.1336 29.9306 24.1336C32.9288 24.1336 35.2804 22.6525 35.2804 19.9836C35.2804 16.816 30.93 16.6107 30.93 15.2176C30.93 14.719 31.5326 14.1764 32.7672 14.1764C34.1634 14.1764 35.3098 14.7484 35.3098 14.7484L35.8683 12.1967C35.8536 12.1967 34.6043 11.6688 32.8554 11.6688ZM7.81128 11.8595L7.73779 12.2407C7.73779 12.2407 8.88418 12.446 9.92768 12.8713C11.2651 13.3552 11.3533 13.6339 11.5885 14.4991L14.0429 23.9283H17.3351L22.3762 11.8595H19.0987L15.8507 20.0715L14.5279 13.1059C14.4103 12.3141 13.793 11.8595 13.0288 11.8595H7.81128ZM23.699 11.8595L21.127 23.9283H24.2575L26.8148 11.8595H23.699ZM41.1299 11.8595C40.3803 11.8595 39.9835 12.2554 39.6896 12.9593L35.104 23.9283H38.3815L39.0135 22.0952H43.0111L43.3933 23.9283H46.2886L43.7754 11.8595H41.1299ZM41.5561 15.1296L42.5261 19.6609H39.9247L41.5561 15.1296Z" fill="#1434CB"/>
</svg>
