<svg width="55" height="35" viewBox="0 0 55 35" fill="none" xmlns="http://www.w3.org/2000/svg">
<rect x="0.912109" y="0.857178" width="53.9739" height="34.088" rx="2.57005" fill="white"/>
<rect x="1.32055" y="1.26562" width="53.157" height="33.2712" rx="2.16162" stroke="black" stroke-opacity="0.1" stroke-width="0.816878"/>
<path d="M47.8203 4.2052C49.1899 4.2052 50.3105 5.32578 50.3105 6.69538V29.107C50.3105 30.4766 49.1899 31.5971 47.8203 31.5971H7.97748C6.60788 31.5971 5.4873 30.4766 5.4873 29.107V6.69538C5.4873 5.32578 6.60788 4.2052 7.97748 4.2052H47.8203Z" fill="white"/>
<path d="M46.0212 27.862H7.97754L10.8686 9.18567H49.0654L46.0212 27.862Z" fill="#393A41"/>
<path d="M20.573 15.411C18.8261 15.411 17.4976 16.9587 17.4976 18.8039C17.4976 20.4723 18.5871 21.6352 20.07 21.6352C21.8168 21.6352 23.1354 20.044 23.1354 18.1988C23.1453 16.5191 22.0559 15.411 20.573 15.411ZM20.1808 20.0651C19.5109 20.0651 19.0452 19.5385 19.0452 18.7254C19.0452 17.8252 19.6217 16.9699 20.4547 16.9699C21.122 16.9699 21.589 17.5189 21.589 18.332C21.5989 19.2421 21.015 20.0651 20.1808 20.0651ZM31.0865 15.411C29.3409 15.411 28.0223 16.9587 28.0223 18.8039C28.0223 20.4723 29.1118 21.6352 30.5947 21.6352C32.3415 21.6352 33.6613 20.044 33.6613 18.1988C33.6713 16.5191 32.5806 15.411 31.089 15.411H31.0865ZM30.7042 20.0651C30.0356 20.0651 29.5687 19.5385 29.5687 18.7254C29.5687 17.8252 30.1452 16.9699 30.9794 16.9699C31.6455 16.9699 32.1137 17.5189 32.1137 18.332C32.1137 19.2421 31.5385 20.0651 30.7042 20.0651ZM38.8048 17.3758C38.8048 16.2552 38.0814 15.543 36.7628 15.543H34.9139L34.0996 21.5032H35.656L35.9125 19.6256H35.9859L36.8077 21.5032H38.5931L37.4501 19.4165C38.3018 19.0653 38.8035 18.3083 38.8035 17.377L38.8048 17.3758ZM36.3146 18.3656H36.0868L36.2598 17.1118H36.4703C36.9558 17.1118 37.2111 17.2886 37.2111 17.6721C37.2111 18.1241 36.8463 18.3656 36.3146 18.3656ZM15.7121 17.9248C15.1182 17.5613 14.9887 17.4741 14.9887 17.2762C14.9887 17.0359 15.2253 16.9151 15.5465 16.9151C15.9226 16.9151 16.4903 16.9686 17.0481 17.6049C17.1826 17.1068 17.4055 16.6374 17.7068 16.2228C16.9224 15.6862 16.1878 15.411 15.5204 15.411C14.1931 15.411 13.4249 16.2664 13.4249 17.2986C13.4249 18.1888 13.9815 18.6495 14.6414 19.0566C15.2365 19.4177 15.3822 19.5385 15.3822 19.7589C15.3822 20.0004 15.1357 20.1324 14.8057 20.1324C14.238 20.1324 13.5781 19.7041 13.1859 19.2646L12.958 20.9218C13.4772 21.3924 14.1458 21.6464 14.8344 21.6364C16.2077 21.6364 16.9498 20.801 16.9498 19.7352C16.9498 18.8574 16.4741 18.3855 15.7134 17.9248H15.7121ZM27.2454 18.1539H25.4151L25.5608 17.1118H27.5181C27.7671 16.5005 28.1568 15.9626 28.6536 15.543H25.45C24.7365 15.543 24.1327 16.1244 24.0306 16.9151L23.4093 21.5144H24.9656L25.2221 19.6368H27.0711L27.208 18.6159C27.2168 18.4515 27.2267 18.3083 27.2454 18.1552V18.1539ZM38.8397 15.5442C39.2605 15.9277 39.517 16.4656 39.5718 17.113H40.8716L40.2777 21.5032H41.8328L42.4268 17.1118H43.8735L44.084 15.543H38.8397V15.5442Z" fill="#EDEDED"/>
</svg>
