<svg width="55" height="35" viewBox="0 0 55 35" fill="none" xmlns="http://www.w3.org/2000/svg">
<rect x="0.684082" y="0.857178" width="53.9739" height="34.088" rx="2.57005" fill="white"/>
<rect x="1.09252" y="1.26562" width="53.157" height="33.2712" rx="2.16162" stroke="black" stroke-opacity="0.1" stroke-width="0.816878"/>
<path d="M34.3477 11.5621C34.4042 8.62285 31.9789 6.36652 28.644 6.36652H21.7472C21.5865 6.36657 21.431 6.424 21.3088 6.52847C21.1866 6.63295 21.1057 6.7776 21.0807 6.93641L18.3168 24.2054C18.3044 24.2836 18.3092 24.3636 18.3307 24.4398C18.3522 24.5161 18.39 24.5868 18.4414 24.647C18.4929 24.7072 18.5568 24.7556 18.6287 24.7888C18.7007 24.8219 18.7789 24.8391 18.8581 24.8392H22.9446L22.3055 28.8384C22.2931 28.9167 22.2979 28.9968 22.3194 29.0731C22.341 29.1493 22.3788 29.22 22.4303 29.2803C22.4818 29.3405 22.5458 29.3889 22.6178 29.422C22.6898 29.4552 22.7681 29.4723 22.8474 29.4722H26.1759C26.337 29.4722 26.4801 29.4141 26.6021 29.3101C26.7241 29.2055 26.7442 29.0613 26.769 28.9023L27.7461 23.1532C27.771 22.9948 27.8518 22.7888 27.9743 22.6842C28.0963 22.5797 28.203 22.5226 28.3636 22.5221H30.4012C33.6669 22.5221 36.4382 20.2013 36.9447 16.9726C37.3028 14.6804 36.3199 12.5957 34.3477 11.5621Z" fill="#001C64"/>
<path d="M23.8281 18.4706L22.8104 24.9248L22.1713 28.9727C22.1589 29.051 22.1637 29.131 22.1852 29.2073C22.2068 29.2836 22.2446 29.3543 22.2961 29.4145C22.3476 29.4748 22.4116 29.5231 22.4836 29.5563C22.5556 29.5894 22.6339 29.6066 22.7132 29.6065H26.236C26.3967 29.6063 26.5521 29.5488 26.6741 29.4444C26.7962 29.3399 26.877 29.1953 26.9021 29.0366L27.8306 23.1528C27.8556 22.9942 27.9364 22.8496 28.0585 22.7453C28.1806 22.6409 28.336 22.5835 28.4966 22.5835H30.5707C33.8364 22.5835 36.6071 20.2014 37.1136 16.9727C37.4728 14.681 36.3193 12.5963 34.3471 11.5622C34.3418 11.8062 34.3207 12.0497 34.2832 12.2911C33.7767 15.5192 31.0054 17.9018 27.7397 17.9018H24.4941C24.3336 17.9018 24.1783 17.9591 24.0562 18.0634C23.9342 18.1677 23.8533 18.3121 23.8281 18.4706Z" fill="#0070E0"/>
<path d="M22.8098 24.9247H18.7113C18.632 24.9248 18.5537 24.9077 18.4817 24.8745C18.4097 24.8414 18.3458 24.793 18.2943 24.7327C18.2429 24.6725 18.2051 24.6018 18.1836 24.5255C18.1621 24.4492 18.1574 24.3692 18.1699 24.2909L20.9333 6.76529C20.9583 6.60653 21.0392 6.46194 21.1614 6.35755C21.2836 6.25317 21.4391 6.19585 21.5998 6.19592H28.644C31.9783 6.19592 34.4036 8.62285 34.3471 11.5621C33.5174 11.1269 32.5424 10.8781 31.4739 10.8781H25.6012C25.4406 10.8783 25.2853 10.9357 25.1633 11.0401C25.0412 11.1444 24.9603 11.2889 24.9352 11.4475L23.8287 18.4705L22.8098 24.9247Z" fill="#003087"/>
</svg>
