<svg width="55" height="35" viewBox="0 0 55 35" fill="none" xmlns="http://www.w3.org/2000/svg">
<rect x="0.797852" y="0.857178" width="53.9739" height="34.088" rx="2.57005" fill="white"/>
<rect x="1.20629" y="1.26562" width="53.157" height="33.2712" rx="2.16162" stroke="black" stroke-opacity="0.1" stroke-width="0.816878"/>
<path d="M44.497 6.4115C45.646 6.4115 46.5861 7.35157 46.5861 8.50054V27.3019C46.5861 28.4508 45.646 29.3909 44.497 29.3909H11.0724C9.92347 29.3909 8.9834 28.4508 8.9834 27.3019V8.50054C8.9834 7.35157 9.92347 6.4115 11.0724 6.4115H44.497Z" fill="#5A31F4"/>
<path d="M30.2736 15.5125C30.2736 17.2548 29.0442 18.4978 27.327 18.4978H25.7091C25.6824 18.4982 25.6563 18.5063 25.6341 18.5211C25.6119 18.5359 25.5944 18.5568 25.5837 18.5813C25.5769 18.5975 25.5733 18.6149 25.5733 18.6325V20.9221C25.5733 20.9399 25.5698 20.9575 25.5629 20.9739C25.5561 20.9903 25.5461 21.0052 25.5334 21.0177C25.5208 21.0303 25.5058 21.0402 25.4894 21.0469C25.4729 21.0536 25.4553 21.057 25.4375 21.0568H24.3052C24.2692 21.0568 24.2347 21.0425 24.2092 21.0171C24.1838 20.9916 24.1694 20.9571 24.1694 20.921V12.6641C24.169 12.6372 24.1768 12.6108 24.1917 12.5884C24.2066 12.5661 24.228 12.5487 24.253 12.5388C24.2695 12.5319 24.2873 12.5283 24.3052 12.5283H27.3343C29.0442 12.5283 30.2736 13.7703 30.2736 15.5125ZM28.8614 15.5125C28.8614 14.5119 28.1741 13.7807 27.2424 13.7807H25.7091C25.6912 13.7807 25.6736 13.7842 25.6571 13.7911C25.6406 13.7979 25.6257 13.8079 25.6131 13.8205C25.6004 13.8331 25.5904 13.8481 25.5836 13.8645C25.5768 13.881 25.5733 13.8987 25.5733 13.9165V17.1023C25.5731 17.1201 25.5765 17.1379 25.5833 17.1544C25.5901 17.1709 25.6002 17.1859 25.613 17.1984C25.6256 17.211 25.6405 17.2211 25.657 17.2279C25.6735 17.2347 25.6912 17.2382 25.7091 17.2381H27.2424C28.1741 17.2433 28.8614 16.5121 28.8614 15.5125ZM30.6099 19.4723C30.598 19.2047 30.6537 18.9384 30.7718 18.698C30.8899 18.4576 31.0667 18.2508 31.2858 18.0967C31.7276 17.7666 32.418 17.5953 33.4322 17.5598L34.5112 17.5222V17.2057C34.5112 16.5717 34.083 16.3043 33.3957 16.3043C32.7084 16.3043 32.2728 16.5456 32.1736 16.9414C32.1651 16.9692 32.1478 16.9935 32.1242 17.0105C32.1006 17.0275 32.0721 17.0362 32.043 17.0354H30.9755C30.9462 17.0358 30.9174 17.0267 30.8937 17.0093C30.87 16.992 30.8525 16.9674 30.8439 16.9393C30.8383 16.9207 30.8368 16.9011 30.8397 16.8819C30.9985 15.9439 31.784 15.2316 33.4448 15.2316C35.2121 15.2316 35.8503 16.0494 35.8503 17.6089V20.9221C35.8502 20.94 35.8465 20.9577 35.8395 20.9742C35.8325 20.9907 35.8222 21.0056 35.8094 21.0182C35.7966 21.0307 35.7814 21.0406 35.7648 21.0472C35.7481 21.0538 35.7303 21.0571 35.7124 21.0568H34.6366C34.6006 21.0568 34.566 21.0425 34.5406 21.0171C34.5151 20.9916 34.5008 20.9571 34.5008 20.921V20.6745C34.5011 20.6541 34.4952 20.634 34.4838 20.617C34.4724 20.6 34.4561 20.5869 34.4371 20.5795C34.4182 20.5721 34.3976 20.5703 34.3778 20.5744C34.3579 20.5784 34.3397 20.5882 34.3253 20.6025C34.0015 20.9513 33.4813 21.2031 32.6468 21.2031C31.4195 21.2031 30.6099 20.569 30.6099 19.4723ZM34.5112 18.7547V18.4978L33.1126 18.5709C32.3762 18.6085 31.948 18.9114 31.948 19.4232C31.948 19.887 32.3407 20.1439 33.028 20.1439C33.9608 20.1439 34.5112 19.6426 34.5112 18.7547ZM36.9303 23.5595V22.5996C36.9306 22.5795 36.9353 22.5597 36.9442 22.5416C36.953 22.5235 36.9658 22.5077 36.9815 22.4951C36.9971 22.4825 37.0153 22.4734 37.0348 22.4686C37.0543 22.4637 37.0746 22.4631 37.0943 22.4669C37.2594 22.4972 37.4265 22.5129 37.5946 22.5129C37.8827 22.5287 38.1677 22.447 38.4036 22.281C38.6395 22.115 38.8126 21.8743 38.8951 21.5979L38.9651 21.3775C38.9755 21.3477 38.9755 21.3153 38.9651 21.2856L36.7246 15.571C36.7116 15.5397 36.7108 15.5046 36.7224 15.4727C36.734 15.4408 36.7571 15.4144 36.7872 15.3987C36.8072 15.3882 36.8294 15.3828 36.852 15.383H37.9383C37.9662 15.3831 37.9934 15.3916 38.0163 15.4075C38.0392 15.4233 38.0568 15.4457 38.0668 15.4718L39.5876 19.5026C39.597 19.5296 39.6146 19.5531 39.6381 19.5696C39.6615 19.5861 39.6895 19.5948 39.7182 19.5945C39.7467 19.5945 39.7746 19.5856 39.798 19.5692C39.8213 19.5527 39.8391 19.5295 39.8487 19.5026L41.17 15.4833C41.179 15.4556 41.1966 15.4315 41.2203 15.4145C41.244 15.3976 41.2725 15.3888 41.3016 15.3893H42.4255C42.4593 15.3895 42.4918 15.4018 42.5171 15.4241C42.5424 15.4464 42.5589 15.477 42.5634 15.5104C42.5659 15.5327 42.5631 15.5553 42.5551 15.5762L40.1579 21.9227C39.6064 23.3986 38.6611 23.7747 37.6197 23.7747C37.4221 23.7801 37.2247 23.7569 37.0337 23.7057C37.0017 23.6979 36.9736 23.6788 36.9544 23.652C36.9353 23.6251 36.9274 23.5923 36.9303 23.5595ZM16.8912 12.052C15.466 12.0414 14.0903 12.5744 13.0443 13.5426C12.9998 13.583 12.972 13.6387 12.9664 13.6986C12.9608 13.7585 12.9778 13.8183 13.014 13.8664L13.6595 14.7427C13.6804 14.7723 13.7076 14.7968 13.7391 14.8147C13.7706 14.8326 13.8056 14.8433 13.8417 14.8461C13.8778 14.8489 13.9141 14.8437 13.9479 14.8309C13.9818 14.8181 14.0124 14.7979 14.0376 14.772C14.4136 14.3986 14.86 14.1039 15.351 13.9048C15.842 13.7058 16.3677 13.6064 16.8975 13.6125C19.1119 13.6125 20.2682 15.2671 20.2682 16.9028C20.2682 18.6785 19.0534 19.9298 17.307 19.9538C15.9574 19.9538 14.9401 19.066 14.9401 17.8919C14.9412 17.5951 15.0087 17.3022 15.1376 17.0347C15.2664 16.7673 15.4534 16.532 15.6848 16.3461C15.7341 16.3056 15.7654 16.2474 15.7718 16.1839C15.7783 16.1205 15.7594 16.0572 15.7193 16.0076L15.0404 15.1563C15.0199 15.1302 14.9943 15.1084 14.9651 15.0924C14.936 15.0764 14.904 15.0664 14.8709 15.0631C14.8378 15.0597 14.8044 15.0632 14.7727 15.0731C14.7409 15.083 14.7115 15.0993 14.6863 15.1208C14.2704 15.4544 13.9343 15.8765 13.7023 16.3565C13.4712 16.8354 13.3509 17.3602 13.3503 17.8919C13.3503 19.9131 15.079 21.4976 17.2934 21.5102H17.3247C19.9538 21.4767 21.8548 19.5423 21.8548 16.8986C21.8548 14.5516 20.1136 12.052 16.8912 12.052Z" fill="white"/>
</svg>
