<svg width="32" height="31" viewBox="0 0 32 31" fill="none" xmlns="http://www.w3.org/2000/svg">
<path d="M4.85938 15.4572C4.85938 10.2657 4.85938 7.66884 6.47199 6.05622C8.08461 4.4436 10.6803 4.4436 15.8729 4.4436C21.0644 4.4436 23.6613 4.4436 25.2739 6.05622C26.8865 7.66884 26.8865 10.2646 26.8865 15.4572C26.8865 20.6486 26.8865 23.2455 25.2739 24.8581C23.6613 26.4707 21.0655 26.4707 15.8729 26.4707C10.6815 26.4707 8.08461 26.4707 6.47199 24.8581C4.85938 23.2455 4.85938 20.6498 4.85938 15.4572Z" stroke="black" stroke-width="1.73898" stroke-linecap="round" stroke-linejoin="round"/>
<path d="M22.2585 9.08069H22.2469M21.0899 15.457C21.0899 16.8406 20.5403 18.1675 19.5619 19.1459C18.5835 20.1243 17.2566 20.6739 15.873 20.6739C14.4893 20.6739 13.1624 20.1243 12.184 19.1459C11.2056 18.1675 10.656 16.8406 10.656 15.457C10.656 14.0733 11.2056 12.7464 12.184 11.768C13.1624 10.7897 14.4893 10.24 15.873 10.24C17.2566 10.24 18.5835 10.7897 19.5619 11.768C20.5403 12.7464 21.0899 14.0733 21.0899 15.457Z" stroke="black" stroke-width="1.73898" stroke-linecap="round" stroke-linejoin="round"/>
</svg>
