<svg width="32" height="31" viewBox="0 0 32 31" fill="none" xmlns="http://www.w3.org/2000/svg">
<path d="M24.0728 5.02454C24.6878 5.02454 25.2775 5.26882 25.7124 5.70365C26.1472 6.13848 26.3915 6.72824 26.3915 7.34318V23.5737C26.3915 24.1886 26.1472 24.7784 25.7124 25.2132C25.2775 25.648 24.6878 25.8923 24.0728 25.8923H7.84233C7.22738 25.8923 6.63763 25.648 6.2028 25.2132C5.76797 24.7784 5.52368 24.1886 5.52368 23.5737V7.34318C5.52368 6.72824 5.76797 6.13848 6.2028 5.70365C6.63763 5.26882 7.22738 5.02454 7.84233 5.02454H24.0728ZM23.4932 22.994V16.8496C23.4932 15.8473 23.095 14.886 22.3862 14.1772C21.6774 13.4684 20.7161 13.0702 19.7138 13.0702C18.7284 13.0702 17.5806 13.6731 17.0242 14.5774V13.2905H13.7896V22.994H17.0242V17.2786C17.0242 16.3859 17.7429 15.6555 18.6356 15.6555C19.0661 15.6555 19.4789 15.8265 19.7833 16.1309C20.0877 16.4353 20.2587 16.8481 20.2587 17.2786V22.994H23.4932ZM10.0219 11.4704C10.5384 11.4704 11.0338 11.2652 11.3991 10.8999C11.7643 10.5347 11.9695 10.0393 11.9695 9.52271C11.9695 8.44454 11.1 7.56345 10.0219 7.56345C9.50223 7.56345 9.00388 7.76987 8.63645 8.1373C8.26902 8.50474 8.0626 9.00308 8.0626 9.52271C8.0626 10.6009 8.94368 11.4704 10.0219 11.4704ZM11.6333 22.994V13.2905H8.42199V22.994H11.6333Z" fill="black"/>
</svg>
