<svg width="32" height="31" viewBox="0 0 32 31" fill="none" xmlns="http://www.w3.org/2000/svg">
<path d="M21.3751 8.29382C20.5826 7.38912 20.1459 6.22725 20.1462 5.02454H16.5639V19.4001C16.5363 20.1781 16.2078 20.9149 15.6478 21.4555C15.0877 21.9961 14.3397 22.2983 13.5613 22.2984C11.915 22.2984 10.547 20.9536 10.547 19.2842C10.547 17.2902 12.4715 15.7946 14.4539 16.4091V12.7456C10.4543 12.2123 6.95312 15.3193 6.95312 19.2842C6.95312 23.1447 10.1529 25.8923 13.5497 25.8923C17.1899 25.8923 20.1462 22.9361 20.1462 19.2842V11.9921C21.5988 13.0353 23.3429 13.595 25.1313 13.5919V10.0096C25.1313 10.0096 22.9518 10.114 21.3751 8.29382Z" fill="black"/>
</svg>
