<svg width="28" height="29" viewBox="0 0 28 29" fill="none" xmlns="http://www.w3.org/2000/svg">
<path d="M1.46045 23.9822C1.46045 22.3047 2.12683 20.6959 3.313 19.5098C4.49917 18.3236 6.10795 17.6572 7.78545 17.6572H20.4354C22.1129 17.6572 23.7217 18.3236 24.9079 19.5098C26.0941 20.6959 26.7604 22.3047 26.7604 23.9822C26.7604 24.821 26.4273 25.6254 25.8342 26.2185C25.2411 26.8115 24.4367 27.1447 23.5979 27.1447H4.62295C3.7842 27.1447 2.97981 26.8115 2.38672 26.2185C1.79364 25.6254 1.46045 24.821 1.46045 23.9822Z" stroke="black" stroke-width="1.98" stroke-linejoin="round"/>
<path d="M14.1104 11.3322C16.7304 11.3322 18.8542 9.20838 18.8542 6.58848C18.8542 3.96858 16.7304 1.84473 14.1104 1.84473C11.4905 1.84473 9.3667 3.96858 9.3667 6.58848C9.3667 9.20838 11.4905 11.3322 14.1104 11.3322Z" stroke="black" stroke-width="1.98"/>
</svg>
