<svg width="23" height="23" viewBox="0 0 23 23" fill="none" xmlns="http://www.w3.org/2000/svg">
<path d="M23 21.7971L16.5753 15.3724C18.1192 13.5189 18.8891 11.1416 18.7248 8.73496C18.5605 6.32832 17.4748 4.07765 15.6933 2.45117C13.9119 0.824694 11.572 -0.0523753 9.16037 0.00242131C6.74875 0.0572179 4.45109 1.03966 2.74538 2.74538C1.03966 4.45109 0.0572179 6.74875 0.00242131 9.16037C-0.0523753 11.572 0.824694 13.9119 2.45117 15.6933C4.07765 17.4748 6.32832 18.5605 8.73496 18.7248C11.1416 18.8891 13.5189 18.1192 15.3724 16.5753L21.7971 23L23 21.7971ZM1.73187 9.3884C1.73187 7.87408 2.18092 6.39377 3.02223 5.13466C3.86354 3.87555 5.05933 2.8942 6.45837 2.31469C7.85742 1.73519 9.39689 1.58356 10.8821 1.87899C12.3673 2.17442 13.7316 2.90363 14.8024 3.97442C15.8732 5.0452 16.6024 6.40946 16.8978 7.89468C17.1932 9.3799 17.0416 10.9194 16.4621 12.3184C15.8826 13.7175 14.9012 14.9133 13.6421 15.7546C12.383 16.5959 10.9027 17.0449 9.3884 17.0449C7.35845 17.0427 5.41229 16.2353 3.9769 14.7999C2.54151 13.3645 1.73412 11.4183 1.73187 9.3884Z" fill="black"/>
</svg>
